<svg xmlns="http://www.w3.org/2000/svg" viewBox="0 0 802.09 802.09"><defs><style>.cls-1{fill:#fff;}.cls-2{fill:none;}.cls-3{fill:#28aae2;}</style></defs><title>Asset 6</title><g id="Layer_2" data-name="Layer 2"><g id="Layer_3" data-name="Layer 3"><circle class="cls-1" cx="401.05" cy="401.05" r="401.05"/><path class="cls-2" d="M722.24,358.54C687.8,306.55,635,241.9,578.1,215.34c8.78,13.32,34.1,56.52,32.75,77.6-4-20.82-19.74-50.24-45.7-84.74S418.41,106.71,399.9,101.84c-16.4-4.31-16.56,20.14-16.27,27.33,5,15.59,19.47,70.94,19.07,81.68-.45,12.11-12.11,21.08-20.63,29.16,13.45-20.19,17.75-30.53,6.05-74-5.65-21-11.95-32.52-15-39.92-16.64-7.39-55.91-25.36-64-38.36-10.1-16.15-18.17-24.22-18.17-3s38.35,64.6,47.44,78.73-2,62.58-7.07,76.71-38.35,36.34-61.57,58.54S231.34,338,229.32,355.19s-7.07,65.6-11.1,75.7-28.27,35.32-42.4,57.53,0,32.3,10.1,49.46c5,15.14,22.2,34.32,42.39,39.36,6.05,34.32,17.05,38.92,28.26,47.44,17.7,13.45,63.59,0,88.82-5s46.43,7.06,61.57,20.18,38.36,66.62,38.36,66.62l20.17,52.33c7.12,12.36,11.88,20.89,11.88,20.89L743.84,398.8S735.34,381.81,722.24,358.54ZM205.93,526.1c-2.91.9-11-.17-13.29-.17s-1.85,4.27-1.85,4.27-4.09-6-3.36-7.63c1.35-3,7.75-.87,13.46-.45a8.28,8.28,0,0,0,8.24-4.43S208.85,525.21,205.93,526.1Zm86-139c15.25.45,42.17,12.56,42.17,12.56s-6.66-1-15.14-1.57a32.1,32.1,0,0,0-5.61,14.19c-.78,7.16.61,14.63-.06,14.69s-5.33-9-6.33-15.25c-.74-4.56.43-11.29,1.34-14.08-5.43,0-8.93.55-11.44,2-7.62,4.49-6.73,18.84-4,26S303.56,441,303.56,441,322,424.83,324.2,421.69c-1.35,4.94-17.95,23.33-22.43,25.12s-15.26-14.8-28.27-8.52c0,0,8.08-8.52,8.08-23.33S276.64,386.7,291.9,387.15ZM271.49,591.71c-12.79-.22-23.56-.22-41.27-14.8,0,0,18.37,10,32.29,10.09,27.14.22,46-6.73,77.61-19.74C311.19,583.41,284.27,591.93,271.49,591.71ZM507.67,340.05c-12.56,5.83-10.76-1.8-5.83-2.7s12.11-4.93,16.6-37.23c4.3-30.94-20.19-105.42-20.19-105.42,9,13.46,31.4,70.43,32.3,91.51S520.23,334.21,507.67,340.05Z"/><path class="cls-3" d="M301.77,446.81c4.48-1.79,21.08-20.18,22.43-25.12C322,424.83,303.56,441,303.56,441s-8.07-8.07-10.77-15.25-3.58-21.53,4-26c2.51-1.47,6-2,11.44-2-.91,2.79-2.08,9.52-1.34,14.08,1,6.22,5.66,15.3,6.33,15.25s-.72-7.53.06-14.69a32.1,32.1,0,0,1,5.61-14.19c8.48.55,15.14,1.57,15.14,1.57s-26.92-12.11-42.17-12.56-10.32,13-10.32,27.81-8.08,23.33-8.08,23.33C286.51,432,297.28,448.61,301.77,446.81Z"/><path class="cls-3" d="M498.25,194.7s24.49,74.48,20.19,105.42c-4.49,32.3-11.66,36.34-16.6,37.23s-6.73,8.53,5.83,2.7,23.78-32.75,22.88-53.84S507.22,208.16,498.25,194.7Z"/><path class="cls-3" d="M200.89,522.12c-5.71-.42-12.11-2.58-13.46.45-.73,1.64,3.36,7.63,3.36,7.63s-.39-4.27,1.85-4.27,10.38,1.07,13.29.17,3.2-8.41,3.2-8.41A8.28,8.28,0,0,1,200.89,522.12Z"/><path class="cls-3" d="M407,639.82c-15.14-13.12-36.33-25.23-61.57-20.18s-71.12,18.49-88.82,5c-11.21-8.52-22.21-13.12-28.26-47.44-20.19-5-37.35-24.22-42.39-39.36-10.1-17.16-24.23-27.25-10.1-49.46s38.36-47.44,42.4-57.53,9.08-58.54,11.1-75.7,17.16-34.32,40.37-56.53,56.53-44.41,61.57-58.54,16.15-62.58,7.07-76.71-47.44-57.53-47.44-78.73,8.07-13.12,18.17,3c8.12,13,47.39,31,64,38.36,3.08,7.4,9.38,18.92,15,39.92,11.7,43.49,7.4,53.83-6.05,74,8.52-8.08,20.18-17,20.63-29.16.4-10.74-14.08-66.09-19.07-81.68-.29-7.19-.13-31.64,16.27-27.33,18.51,4.87,139.29,71.86,165.25,106.36s41.7,63.92,45.7,84.74c1.35-21.08-24-64.28-32.75-77.6C635,241.9,687.8,306.55,722.24,358.54c-19.26-34.18-48.47-81.89-75.3-109.12-45.08-45.76-72-49.79-72-49.79s-4.71-8.08-65.27-51.82S415.47,96,398.64,88.6,369,107.44,369,107.44s-41.72-18.84-49.8-27.59S295.69,50.24,291,50.24,276.35,63.2,279.54,96c1.63,16.74,41.72,68.64,45.09,74.69s-3.37,41.05-5.39,56.52-81.42,66-97.57,91.52-17.49,95.55-20.18,103-45.09,60.56-51.82,79.4,20.19,41.72,20.19,41.72,4.71,30.28,45.08,45.76c1.35,36.34,30.28,53.16,57.2,60.56S340.78,639,361,639s30.28,12.78,47.78,31c12.15,12.62,40.55,60.65,56.75,88.79l-20.17-52.33S422.1,652.94,407,639.82Z"/><path class="cls-3" d="M262.51,587c-13.92-.12-32.29-10.09-32.29-10.09,17.71,14.58,28.48,14.58,41.27,14.8s39.7-8.3,68.63-24.45C308.5,580.27,289.65,587.22,262.51,587Z"/></g></g></svg>