<svg xmlns="http://www.w3.org/2000/svg" viewBox="0 0 802.09 802.09"><defs><style>.cls-1{fill:#fff;}.cls-2{fill:#28aae2;}</style></defs><title>Asset 5</title><g id="Layer_2" data-name="Layer 2"><g id="Layer_3" data-name="Layer 3"><circle class="cls-1" cx="401.05" cy="401.05" r="401.05"/><path class="cls-2" d="M353.46,717.2C370.93,668.38,400.63,596,449.11,579s140.54-16.76,159-26.12,84.39,9.37,123.4-47.9c35.41-52,34.29-75.21,34-79.06,4.71-9.42,10.81-28.8,8.07-42.73-2.65-13.5-13.87-21.3-27.14-22.88-5.2-2.08-10.47-6.23-14.6-7.95-18.81-7.83-97.3-42-108.27-55s11.37-42-7.55-61.55-73.27-60.27-132.74-83.55S354.18,125.1,311.13,139.32l-.93.34a85.45,85.45,0,0,1-9.83-3.57c-17.51-7.57-61.08,2.47-81.56,14.55s-68.63,47.15-77.41,59.12c-6.92,9.44-20.09,28.86-19.11,47.36a33.48,33.48,0,0,0,4.06,11.07c12.75,21.84,24.74,40.07,58.71,70.63,90.17,81.1,63.74,57.68,88.17,77.5,21,17,36.22,34.27,57.37-.22s19.47-140.29,19-155.55c-1.07-32.47,5.6-61,5.67-72,.09,10.7.12,12.22,0,14.55-1.3,21.6,4.13,50.53,4.09,85.43S356,383.75,346.86,411.47c-8.31,25.2-22.35,39.25-38.29,40.82s-33.47-13.15-55.7-30c-18.18-13.74-69.52-63.46-89.27-81.53s-41-48.25-48.34-68.47c-1-2.67-1.76-5-2.37-7.23-48.66,33.62-86.76,60.75-86.76,60.75s35.94-36,61.51-54.8,23.77-18.17,23.77-18.17-2.13-25.91,15-44.3,50.47-52.82,104.75-77,78.5-4,78.5-4,96-31,186.62,10.76,125,75.1,140,93.31c15.48,18.84-3,55.51,8.08,61.91,6.88,4,76.59,37.12,104.52,52.48,24.34,13.39,33.2,17.5,36.34,34.21,1.68,8.95,3.36,29-12.12,46.54,0,0-3.92,54.84-37.23,92.86s-68,43.29-94.21,44-53.6,12.34-81.64,15.7S468,585,450.1,598.51c-9.19,7-31.58,21.87-48.45,44C378.56,672.73,360.87,710.42,353.46,717.2Zm354.33-351C719,355.1,740,357.9,746.31,359.05c8.39,2.65,25,9.12,28.88,19.7,4.91,13.26-6.15,42.73-9.78,50.08l-17,14.72-4.28-17.35s-.12-8.08-21-14.89S694.47,379.31,707.79,366.17Zm-150-84.31c-11.2,7.34-42.79,5.76-75-8.43,6.29-4.26,72.33-40.92,71.65-22.24-.68,18.89,12.69,24.25,12.69,24.25C569.41,286.38,564.27,277.59,557.76,281.86ZM725.43,514.29c.23-1.18-1.12-6.52-7.16-12.5-34.79,28.65-118.65,26.85-144.62,25.6s-50.1,8.74-85.11,10.58-31.82-11.38-32.19-21.77,29.1-4.24,49.48-7.65,80.77,17.75,125.87,9.78c48-8.48,99.62-37.7,99.62-37.7l-.84,26Z"/></g></g></svg>