<svg xmlns="http://www.w3.org/2000/svg" viewBox="0 0 522.76 505.82"><defs><style>.cls-1,.cls-3{fill:#fff;}.cls-1{fill-rule:evenodd;}.cls-2{fill:none;stroke:#fff;stroke-linecap:round;stroke-linejoin:round;stroke-width:2px;}.cls-3{font-size:150px;font-family:RobagaRoundedLight, Robaga Rounded Light;}.cls-4{letter-spacing:-0.03em;}.cls-5{letter-spacing:-0.04em;}.cls-6,.cls-7,.cls-8{font-family:RobagaRounded, Robaga Rounded;}.cls-6{letter-spacing:-0.05em;}.cls-7{letter-spacing:-0.03em;}</style></defs><title>Asset 2</title><g id="Layer_2" data-name="Layer 2"><g id="Layer_1-2" data-name="Layer 1"><path class="cls-1" d="M116.12,286.54s9.81-28.53,14-40c3.39-9.29,16-35,16-35s-22.29,23.1-27.41,39.86S116.12,286.54,116.12,286.54Zm31.42-145.36s-7,60.33,14.88,98.13,48.37,50.23,48.37,50.23-38.15-46.46-46.67-74C154,182.72,147.54,141.18,147.54,141.18ZM319.12,22.54c5.62,4.9,34.68,27.68,34,34s-6.52,10.69-6.52,10.69,4.42-1.21,6-2.79c12-11.71,7.79-17.11-22.52-44.9-37-33.93-79.8-10.91-79.8-10.91C291-3,313.5,17.64,319.12,22.54ZM329.39,193s-10.16,32.4-5.27,56.13,22.48,33.16,22.48,33.16-10-21.9-13.49-34.88C329.07,232.33,329.39,193,329.39,193Zm-31.63-72.27c7.4-1,10.09-9.17,11.16-10.23s3.83-.58,1.86-4.18c-1.43-13.45-8-5.87-12.09-2.33s-11.16,12.56-11.16,12.56C290.08,120,290.36,121.74,297.76,120.71Zm109.36,12.83c-1.9-10.85-34.42-20.75-54.94-33.29-15.8-9.65-16.46-27.65-11.63-44.18-38.74-39-77.55-44.24-100.92-42.32S195.71,34,195.71,34c9.87-4.27,34.15-23.91,81.12-10C311,34.07,329.12,58.54,329.12,58.54s-1.79,5.53-.66,24c1.25,20.5,40.82,35.44,57.66,43,4.45,2,7.38,3.83,9.25,5.65l-2.27,1.62s-1.8,2.4-7.44,5.58-16.78,5.36-10.23,9.76c1.82,1.23,6.31,3.76,16.74,5.12-.85-.11.68-.49,1.8-.73-3.93,10.57-12.27,25.54-24.3,30.51-10.32,4.26-33.29,2.09-40.55,1.49-30.07-2.47-34.75-7.31-45,0,18.21-2.16,6-.36,37.41,3.3,46.21,5.37,50.13,3.79,60.59-4.3S409,144.39,407.12,133.54ZM205.68,48.63S233.23,100.9,237.77,111s5,18.11-3.26,23.25-53.65,7.65-87-9.3c1.82-28.3,6.56-44.11,14.88-55.81,11.69-16.44,36.74-31.63,36.74-31.63s-21.66,3-41.39,23.72S137.31,130,137.31,130s21.32,17.18,65.11,18.13,57.27-14.75,36.28-47.9S205.68,48.63,205.68,48.63Z"/><path class="cls-2" d="M116.12,286.54s9.81-28.53,14-40c3.39-9.29,16-35,16-35s-22.29,23.1-27.41,39.86S116.12,286.54,116.12,286.54Zm31.42-145.36s-7,60.33,14.88,98.13,48.37,50.23,48.37,50.23-38.15-46.46-46.67-74C154,182.72,147.54,141.18,147.54,141.18ZM319.12,22.54c5.62,4.9,34.68,27.68,34,34s-6.52,10.69-6.52,10.69,4.42-1.21,6-2.79c12-11.71,7.79-17.11-22.52-44.9-37-33.93-79.8-10.91-79.8-10.91C291-3,313.5,17.64,319.12,22.54ZM329.39,193s-10.16,32.4-5.27,56.13,22.48,33.16,22.48,33.16-10-21.9-13.49-34.88C329.07,232.33,329.39,193,329.39,193Zm-31.63-72.27c7.4-1,10.09-9.17,11.16-10.23s3.83-.58,1.86-4.18c-1.43-13.45-8-5.87-12.09-2.33s-11.16,12.56-11.16,12.56C290.08,120,290.36,121.74,297.76,120.71Zm109.36,12.83c-1.9-10.85-34.42-20.75-54.94-33.29-15.8-9.65-16.46-27.65-11.63-44.18-38.74-39-77.55-44.24-100.92-42.32S195.71,34,195.71,34c9.87-4.27,34.15-23.91,81.12-10C311,34.07,329.12,58.54,329.12,58.54s-1.79,5.53-.66,24c1.25,20.5,40.82,35.44,57.66,43,4.45,2,7.38,3.83,9.25,5.65l-2.27,1.62s-1.8,2.4-7.44,5.58-16.78,5.36-10.23,9.76c1.82,1.23,6.31,3.76,16.74,5.12-.85-.11.68-.49,1.8-.73-3.93,10.57-12.27,25.54-24.3,30.51-10.32,4.26-33.29,2.09-40.55,1.49-30.07-2.47-34.75-7.31-45,0,18.21-2.16,6-.36,37.41,3.3,46.21,5.37,50.13,3.79,60.59-4.3S409,144.39,407.12,133.54ZM205.68,48.63S233.23,100.9,237.77,111s5,18.11-3.26,23.25-53.65,7.65-87-9.3c1.82-28.3,6.56-44.11,14.88-55.81,11.69-16.44,36.74-31.63,36.74-31.63s-21.66,3-41.39,23.72S137.31,130,137.31,130s21.32,17.18,65.11,18.13,57.27-14.75,36.28-47.9S205.68,48.63,205.68,48.63Z"/><text class="cls-3" transform="translate(30.48 437.24)"><tspan class="cls-4">N</tspan><tspan class="cls-5" x="104.59" y="0">e</tspan><tspan x="178.49" y="0">t</tspan><tspan class="cls-6" x="236.57" y="0">V</tspan><tspan class="cls-7" x="323.8" y="0">e</tspan><tspan class="cls-8" x="399.68" y="0">t</tspan></text></g></g></svg>