<svg xmlns="http://www.w3.org/2000/svg" viewBox="0 0 293.78 290.54"><defs><style>.cls-1{fill:#fff;fill-rule:evenodd;}.cls-2{fill:none;stroke:#fff;stroke-linecap:round;stroke-linejoin:round;stroke-width:2px;}</style></defs><title>Asset 1</title><g id="Layer_2" data-name="Layer 2"><g id="Layer_1-2" data-name="Layer 1"><path class="cls-1" d="M1.63,286.54s9.81-28.53,14-40c3.39-9.29,16-35,16-35S9.34,234.64,4.22,251.4,1.63,286.54,1.63,286.54ZM33.05,141.18s-7,60.33,14.88,98.13S96.3,289.54,96.3,289.54s-38.15-46.46-46.67-74C39.47,182.72,33.05,141.18,33.05,141.18ZM204.63,22.54c5.62,4.9,34.68,27.68,34,34s-6.52,10.69-6.52,10.69,4.43-1.21,6-2.79c12-11.71,7.79-17.11-22.52-44.9-37-33.93-79.79-10.91-79.79-10.91C176.51-3,199,17.64,204.63,22.54ZM214.9,193s-10.16,32.4-5.27,56.13,22.48,33.16,22.48,33.16-10-21.9-13.49-34.88C214.58,232.33,214.9,193,214.9,193Zm-31.63-72.27c7.4-1,10.09-9.17,11.17-10.23s3.82-.58,1.86-4.18c-1.44-13.45-8-5.87-12.1-2.33S173,116.53,173,116.53C175.59,120,175.87,121.74,183.27,120.71Zm109.36,12.83c-1.9-10.85-34.42-20.75-54.94-33.29C221.9,90.6,221.23,72.6,226.06,56.07c-38.74-39-77.54-44.24-100.92-42.32S81.22,34,81.22,34c9.87-4.27,34.15-23.91,81.12-10,34.19,10.09,52.29,34.56,52.29,34.56s-1.79,5.53-.66,24c1.25,20.5,40.82,35.44,57.66,43,4.45,2,7.38,3.83,9.25,5.65l-2.26,1.62s-1.81,2.4-7.45,5.58-16.78,5.36-10.23,9.76c1.82,1.23,6.31,3.76,16.75,5.12-.86-.11.68-.49,1.79-.73-3.93,10.57-12.27,25.54-24.3,30.51-10.32,4.26-33.29,2.09-40.55,1.49-30.07-2.47-34.74-7.31-45,0,18.21-2.16,6-.36,37.41,3.3,46.21,5.37,50.14,3.79,60.59-4.3S294.53,144.39,292.63,133.54ZM91.19,48.63S118.74,100.9,123.28,111s5,18.11-3.26,23.25-53.65,7.65-87-9.3c1.83-28.3,6.56-44.11,14.88-55.81C59.62,52.65,84.68,37.46,84.68,37.46s-21.67,3-41.4,23.72S22.82,130,22.82,130s21.32,17.18,65.11,18.13,57.27-14.75,36.28-47.9S91.19,48.63,91.19,48.63Z"/><path class="cls-2" d="M1.63,286.54s9.81-28.53,14-40c3.39-9.29,16-35,16-35S9.34,234.64,4.22,251.4,1.63,286.54,1.63,286.54ZM33.05,141.18s-7,60.33,14.88,98.13S96.3,289.54,96.3,289.54s-38.15-46.46-46.67-74C39.47,182.72,33.05,141.18,33.05,141.18ZM204.63,22.54c5.62,4.9,34.68,27.68,34,34s-6.52,10.69-6.52,10.69,4.43-1.21,6-2.79c12-11.71,7.79-17.11-22.52-44.9-37-33.93-79.79-10.91-79.79-10.91C176.51-3,199,17.64,204.63,22.54ZM214.9,193s-10.16,32.4-5.27,56.13,22.48,33.16,22.48,33.16-10-21.9-13.49-34.88C214.58,232.33,214.9,193,214.9,193Zm-31.63-72.27c7.4-1,10.09-9.17,11.17-10.23s3.82-.58,1.86-4.18c-1.44-13.45-8-5.87-12.1-2.33S173,116.53,173,116.53C175.59,120,175.87,121.74,183.27,120.71Zm109.36,12.83c-1.9-10.85-34.42-20.75-54.94-33.29C221.9,90.6,221.23,72.6,226.06,56.07c-38.74-39-77.54-44.24-100.92-42.32S81.22,34,81.22,34c9.87-4.27,34.15-23.91,81.12-10,34.19,10.09,52.29,34.56,52.29,34.56s-1.79,5.53-.66,24c1.25,20.5,40.82,35.44,57.66,43,4.45,2,7.38,3.83,9.25,5.65l-2.26,1.62s-1.81,2.4-7.45,5.58-16.78,5.36-10.23,9.76c1.82,1.23,6.31,3.76,16.75,5.12-.86-.11.68-.49,1.79-.73-3.93,10.57-12.27,25.54-24.3,30.51-10.32,4.26-33.29,2.09-40.55,1.49-30.07-2.47-34.74-7.31-45,0,18.21-2.16,6-.36,37.41,3.3,46.21,5.37,50.14,3.79,60.59-4.3S294.53,144.39,292.63,133.54ZM91.19,48.63S118.74,100.9,123.28,111s5,18.11-3.26,23.25-53.65,7.65-87-9.3c1.83-28.3,6.56-44.11,14.88-55.81C59.62,52.65,84.68,37.46,84.68,37.46s-21.67,3-41.4,23.72S22.82,130,22.82,130s21.32,17.18,65.11,18.13,57.27-14.75,36.28-47.9S91.19,48.63,91.19,48.63Z"/></g></g></svg>