<svg xmlns="http://www.w3.org/2000/svg" viewBox="0 0 802.09 802.09"><defs><style>.cls-1{fill:#fff;}.cls-2{fill:#28aae2;}</style></defs><title>Asset 8</title><g id="Layer_2" data-name="Layer 2"><g id="Layer_3" data-name="Layer 3"><circle class="cls-1" cx="401.05" cy="401.05" r="401.05"/><path class="cls-2" d="M696.75,379.28v.15c-32.2-54-93.85-138.79-161.14-170.23,8.78,13.33,34.09,56.52,32.74,77.61-4-20.83-19.73-50.25-45.7-84.75S375.91,100.57,357.4,95.7C341,91.39,340.84,115.85,341.14,123c5,15.59,19.46,70.94,19.06,81.68-.44,12.11-12.11,21.09-20.63,29.16,13.46-20.19,17.76-30.52,6.06-74-5.65-21-12-32.52-15-39.92-16.64-7.39-55.92-25.36-64-38.36-10.09-16.15-18.17-24.22-18.17-3s38.36,64.6,47.44,78.73-2,62.58-7.06,76.71-38.36,36.34-61.57,58.55-38.36,39.36-40.38,56.52-7.06,65.61-11.1,75.7-28.26,35.33-42.39,57.53,0,32.3,10.09,49.46c5.05,15.14,22.21,34.32,42.39,39.36,6.06,34.32,17.05,38.92,28.26,47.44,17.7,13.45,63.59,0,88.83-5s46.43,7.06,61.57,20.18,38.35,66.62,38.35,66.62L430.06,771c156.32-56.8,268-206.67,268-382.62,0-2.47,0-4.93-.07-7.39A16.49,16.49,0,0,1,696.75,379.28ZM163.44,520c-2.92.9-11.05-.16-13.29-.16s-1.85,4.26-1.85,4.26-4.1-6-3.37-7.63c1.35-3,7.75-.87,13.46-.45a8.26,8.26,0,0,0,8.24-4.43S166.35,519.07,163.44,520Zm86-139c15.25.45,42.17,12.56,42.17,12.56s-6.66-1-15.14-1.57a32.22,32.22,0,0,0-5.61,14.19c-.78,7.16.62,14.63-.05,14.69s-5.33-9-6.34-15.25c-.74-4.56.43-11.28,1.34-14.08-5.42,0-8.93.55-11.43,2-7.63,4.49-6.73,18.84-4,26s10.76,15.25,10.76,15.25,18.4-16.15,20.64-19.29c-1.35,4.94-17.94,23.33-22.43,25.13S244,425.87,231,432.15c0,0,8.07-8.52,8.07-23.33S234.15,380.56,249.4,381ZM229,585.57c-12.79-.22-23.54-.22-41.25-14.79.7.38,18.63,10,32.28,10.08,27.14.23,46-6.73,77.61-19.74C268.69,577.27,241.77,585.8,229,585.57ZM465.18,333.91c-12.56,5.83-10.77-1.8-5.84-2.69s12.12-4.94,16.6-37.24c4.3-30.94-20.18-105.42-20.18-105.42,9,13.46,31.4,70.43,32.3,91.52S477.74,328.08,465.18,333.91Z"/></g></g></svg>