<svg xmlns="http://www.w3.org/2000/svg" viewBox="0 0 802.09 802.09"><defs><style>.cls-1{fill:#fff;}.cls-2{fill:#28aae2;}</style></defs><title>Asset 7</title><g id="Layer_2" data-name="Layer 2"><g id="Layer_3" data-name="Layer 3"><circle class="cls-1" cx="401.05" cy="401.05" r="401.05"/><path class="cls-2" d="M767.35,446.83c7.16-8.16,17.8-31,15.06-44.91-2.66-13.49-22.29-21.41-35.56-23-5.21-2.08-10.08-3.87-14.21-5.59-18.82-7.83-97.3-42-108.28-55s11.38-42-7.54-61.55-73.28-60.27-132.74-83.55S355,146.08,312,160.3l-.93.34a85.45,85.45,0,0,1-9.83-3.57c-17.5-7.57-61.08,2.48-81.55,14.55S151,218.77,142.23,230.74c-6.92,9.44-20.09,28.86-19.1,47.36a33.15,33.15,0,0,0,4.05,11.07c12.75,21.84,24.74,40.07,58.71,70.63,90.17,81.1,63.74,57.68,88.17,77.5,21,17.05,36.22,34.27,57.37-.22s19.47-140.29,19-155.55c-1.07-32.47,5.59-61,5.67-71.95.08,10.7.12,12.22,0,14.55-1.3,21.6,4.13,50.53,4.09,85.43s-3.32,95.17-12.45,122.9c-8.3,25.19-22.35,39.24-38.28,40.81s-33.48-13.15-55.71-30c-18.17-13.74-69.51-63.46-89.27-81.53s-41-48.25-48.34-68.47c-1-2.67-1.76-5-2.37-7.23C65.06,319.69,27,346.82,27,346.82-36.85,450.09,309.79,792.33,354.29,738.19S401.46,616.93,449.94,600s140.54-16.76,159-26.12,84.39,9.38,123.4-47.9C767.74,474,767.67,450.68,767.35,446.83Zm-58.73-59.68c11.24-11.07,32.22-8.27,38.53-7.12,8.38,2.66,25,9.12,28.87,19.7,4.91,13.26-6.13,40.2-9.76,47.56L749.2,464.53l-4.27-17.35s-.12-8.07-21-14.89S695.3,400.29,708.62,387.15Zm-150-84.31c-11.2,7.35-42.78,5.76-75-8.43,6.29-4.26,72.33-40.91,71.65-22.24-.68,18.89,12.7,24.25,12.7,24.25C570.24,307.36,565.1,298.57,558.59,302.84ZM725.11,533.48l.53-.83c.23-1.18-.49-3.9-6.54-9.87-34.79,28.64-118.65,26.84-144.62,25.59s-50.1,8.75-85.1,10.58-31.83-11.37-32.2-21.77,29.1-4.24,49.48-7.65,80.77,17.75,125.87,9.79c48-8.49,99.63-37.71,99.63-37.71l-1.67,23.31-4.85,7.73A1.15,1.15,0,0,1,725.11,533.48Z"/></g></g></svg>