<svg xmlns="http://www.w3.org/2000/svg" viewBox="0 0 443.48 438.41"><defs><style>.cls-1,.cls-3{fill:#fff;}.cls-1{fill-rule:evenodd;}.cls-2{fill:none;stroke:#fff;stroke-linecap:round;stroke-linejoin:round;stroke-width:2px;}</style></defs><title>Asset 4</title><g id="Layer_2" data-name="Layer 2"><g id="Layer_1-2" data-name="Layer 1"><path class="cls-1" d="M69.89,286.54s9.81-28.53,14-40c3.39-9.29,16-35,16-35S77.6,234.64,72.47,251.4,69.89,286.54,69.89,286.54Zm31.42-145.36s-7,60.33,14.88,98.13,48.37,50.23,48.37,50.23-38.15-46.46-46.67-74C107.73,182.72,101.31,141.18,101.31,141.18ZM272.89,22.54c5.62,4.9,34.68,27.68,34,34s-6.52,10.69-6.52,10.69,4.42-1.21,6-2.79c12-11.71,7.79-17.11-22.52-44.9-37-33.93-79.8-10.91-79.8-10.91C244.77-3,267.27,17.64,272.89,22.54ZM283.16,193s-10.16,32.4-5.27,56.13,22.48,33.16,22.48,33.16-10-21.9-13.49-34.88C282.84,232.33,283.16,193,283.16,193Zm-31.63-72.27c7.4-1,10.09-9.17,11.16-10.23s3.83-.58,1.86-4.18c-1.43-13.45-8-5.87-12.09-2.33s-11.16,12.56-11.16,12.56C243.85,120,244.13,121.74,251.53,120.71Zm109.36,12.83c-1.9-10.85-34.42-20.75-54.94-33.29-15.8-9.65-16.47-27.65-11.63-44.18-38.74-39-77.55-44.24-100.92-42.32S149.48,34,149.48,34c9.87-4.27,34.14-23.91,81.12-10,34.19,10.09,52.29,34.56,52.29,34.56s-1.79,5.53-.66,24c1.25,20.5,40.82,35.44,57.66,43,4.45,2,7.38,3.83,9.25,5.65l-2.27,1.62s-1.8,2.4-7.44,5.58-16.78,5.36-10.23,9.76c1.82,1.23,6.31,3.76,16.74,5.12-.85-.11.68-.49,1.8-.73-3.93,10.57-12.27,25.54-24.3,30.51-10.32,4.26-33.29,2.09-40.55,1.49-30.07-2.47-34.75-7.31-45,0,18.21-2.16,6-.36,37.41,3.3,46.21,5.37,50.13,3.79,60.59-4.3S362.79,144.39,360.89,133.54ZM159.45,48.63S187,100.9,191.54,111s5,18.11-3.26,23.25-53.65,7.65-87-9.3c1.82-28.3,6.56-44.11,14.88-55.81,11.69-16.44,36.74-31.63,36.74-31.63s-21.66,3-41.39,23.72S91.08,130,91.08,130s21.32,17.18,65.11,18.13,57.27-14.75,36.28-47.9S159.45,48.63,159.45,48.63Z"/><path class="cls-2" d="M69.89,286.54s9.81-28.53,14-40c3.39-9.29,16-35,16-35S77.6,234.64,72.47,251.4,69.89,286.54,69.89,286.54Zm31.42-145.36s-7,60.33,14.88,98.13,48.37,50.23,48.37,50.23-38.15-46.46-46.67-74C107.73,182.72,101.31,141.18,101.31,141.18ZM272.89,22.54c5.62,4.9,34.68,27.68,34,34s-6.52,10.69-6.52,10.69,4.42-1.21,6-2.79c12-11.71,7.79-17.11-22.52-44.9-37-33.93-79.8-10.91-79.8-10.91C244.77-3,267.27,17.64,272.89,22.54ZM283.16,193s-10.16,32.4-5.27,56.13,22.48,33.16,22.48,33.16-10-21.9-13.49-34.88C282.84,232.33,283.16,193,283.16,193Zm-31.63-72.27c7.4-1,10.09-9.17,11.16-10.23s3.83-.58,1.86-4.18c-1.43-13.45-8-5.87-12.09-2.33s-11.16,12.56-11.16,12.56C243.85,120,244.13,121.74,251.53,120.71Zm109.36,12.83c-1.9-10.85-34.42-20.75-54.94-33.29-15.8-9.65-16.47-27.65-11.63-44.18-38.74-39-77.55-44.24-100.92-42.32S149.48,34,149.48,34c9.87-4.27,34.14-23.91,81.12-10,34.19,10.09,52.29,34.56,52.29,34.56s-1.79,5.53-.66,24c1.25,20.5,40.82,35.44,57.66,43,4.45,2,7.38,3.83,9.25,5.65l-2.27,1.62s-1.8,2.4-7.44,5.58-16.78,5.36-10.23,9.76c1.82,1.23,6.31,3.76,16.74,5.12-.85-.11.68-.49,1.8-.73-3.93,10.57-12.27,25.54-24.3,30.51-10.32,4.26-33.29,2.09-40.55,1.49-30.07-2.47-34.75-7.31-45,0,18.21-2.16,6-.36,37.41,3.3,46.21,5.37,50.13,3.79,60.59-4.3S362.79,144.39,360.89,133.54ZM159.45,48.63S187,100.9,191.54,111s5,18.11-3.26,23.25-53.65,7.65-87-9.3c1.82-28.3,6.56-44.11,14.88-55.81,11.69-16.44,36.74-31.63,36.74-31.63s-21.66,3-41.39,23.72S91.08,130,91.08,130s21.32,17.18,65.11,18.13,57.27-14.75,36.28-47.9S159.45,48.63,159.45,48.63Z"/><path class="cls-3" d="M69.36,438.41a4.09,4.09,0,0,1-3.59-2.05L8.86,351.18V434a4.2,4.2,0,0,1-1.32,3.12,4.36,4.36,0,0,1-3.15,1.28,4.26,4.26,0,0,1-3.11-1.28A4.28,4.28,0,0,1,0,434V333.38a4.24,4.24,0,0,1,1.28-3.11A4.22,4.22,0,0,1,4.39,329,4.06,4.06,0,0,1,8,331l56.91,85.18V333.38a4.16,4.16,0,0,1,1.32-3.11A4.34,4.34,0,0,1,69.36,329a4.37,4.37,0,0,1,4.39,4.39V434a4.37,4.37,0,0,1-4.39,4.4Z"/><path class="cls-3" d="M132.86,438.34q-11.87,0-19.88-4.58a29.52,29.52,0,0,1-12.13-13q-4.09-8.43-4.1-20a58.6,58.6,0,0,1,1.94-14.87,45.49,45.49,0,0,1,5.9-13.44,31.33,31.33,0,0,1,10.07-9.74A27.62,27.62,0,0,1,129.2,359q15.88,0,23.73,11.21,7,10,7,26.37a4.13,4.13,0,0,1-4.18,4.17H107.23a41.36,41.36,0,0,0,2.56,15.09Q115.43,430,132.86,430a40.39,40.39,0,0,0,20.73-5.35,4.22,4.22,0,0,1,2.12-.59,4.07,4.07,0,0,1,3,1.21,4,4,0,0,1-.92,6.41,43.63,43.63,0,0,1-12,5A52.32,52.32,0,0,1,132.86,438.34Zm17.51-45.93a42.68,42.68,0,0,0-2.57-12.23,20.82,20.82,0,0,0-6.59-9.19q-4.47-3.56-12-3.55-9.37,0-15.09,8.13a38.23,38.23,0,0,0-6.3,16.84Z"/><path class="cls-3" d="M205.3,438.34q-13.56,0-19.7-9.38-5.35-8.13-5.35-22v-38.3h-6.67a4.25,4.25,0,0,1,0-8.5h6.67V337.48a3.45,3.45,0,0,1,1.68-3.15,6.73,6.73,0,0,1,3.52-1,6.62,6.62,0,0,1,3.55,1,3.46,3.46,0,0,1,1.65,3.15v22.63h18.24a4.25,4.25,0,0,1,0,8.5H190.65v38.3q0,10,2.64,15.6,3.36,7.26,12,7.26a17.61,17.61,0,0,0,8-1.76,3.41,3.41,0,0,1,1.69-.44,4.23,4.23,0,0,1,4.24,4.25,4,4,0,0,1-2.56,3.81A25.15,25.15,0,0,1,205.3,438.34Z"/><path class="cls-3" d="M269.68,438.26c-2.59,0-4.45-1.36-5.57-4.1l-39-96.68a6.68,6.68,0,0,1-.44-2.34,5.47,5.47,0,0,1,2.27-4.62,8.22,8.22,0,0,1,5-1.68c3.52,0,5.81,1.37,6.89,4.1l31.86,79.54,32.23-79.54q1.68-4.1,5.56-4.1a6.39,6.39,0,0,1,6.3,6.3,6.09,6.09,0,0,1-.44,2.34l-39.11,96.68C274.1,436.9,272.27,438.26,269.68,438.26Z"/><path class="cls-3" d="M352.44,438.34q-11.87,0-19.92-4.62a29.84,29.84,0,0,1-12.2-13.07q-4.12-8.46-4.13-20a58.1,58.1,0,0,1,1.94-14.87,44.13,44.13,0,0,1,6-13.44,31.23,31.23,0,0,1,10.21-9.7A28.25,28.25,0,0,1,349,359q16,0,23.95,11.28,7.17,10,7.18,26.44a6,6,0,0,1-5.94,5.94H330.1A32.87,32.87,0,0,0,332.67,415a18.42,18.42,0,0,0,7.17,8.35q4.85,3,12.6,3a36.58,36.58,0,0,0,18.68-4.76,5.83,5.83,0,0,1,3.07-.88,6,6,0,0,1,5.94,5.93,5.59,5.59,0,0,1-3,5,40.7,40.7,0,0,1-11.9,5A52.26,52.26,0,0,1,352.44,438.34Zm14.43-47.54a33.25,33.25,0,0,0-2.42-9.85,17,17,0,0,0-5.64-7.25Q355.08,371,349,371a13.94,13.94,0,0,0-9.16,3,21.22,21.22,0,0,0-5.78,7.5A40,40,0,0,0,331,390.8Z"/><path class="cls-3" d="M428,438.34q-14,0-20.5-9.67-5.79-8.51-5.79-22.78v-33.4h-4.39a5.91,5.91,0,0,1-4.33-1.83,6,6,0,0,1-1.83-4.4,6.25,6.25,0,0,1,6.16-6.15h4.39V339.24a5.08,5.08,0,0,1,2.16-4.4,8.11,8.11,0,0,1,4.8-1.53,8,8,0,0,1,4.76,1.53,5.12,5.12,0,0,1,2.12,4.4v20.87h16a6.25,6.25,0,0,1,6.15,6.15,6,6,0,0,1-1.83,4.4,5.91,5.91,0,0,1-4.32,1.83h-16v33.4a52.76,52.76,0,0,0,.88,9.85,14.48,14.48,0,0,0,3.55,7.4q2.69,2.82,8,2.82a15.42,15.42,0,0,0,7-1.54,5.37,5.37,0,0,1,2.42-.59,6.13,6.13,0,0,1,6.15,6.16q0,3.66-3.73,5.56A26.28,26.28,0,0,1,428,438.34Z"/></g></g></svg>