<svg xmlns="http://www.w3.org/2000/svg" viewBox="0 0 1403.21 865.15"><defs><style>.cls-1{fill:#fff;}</style></defs><title>Asset 3</title><g id="Layer_2" data-name="Layer 2"><g id="Layer_1-2" data-name="Layer 1"><path class="cls-1" d="M1403.21,454.77c-1.35,4.93-2.39,10-4.11,14.75-10,27.83-38.8,46.05-67.78,43.08-30.64-3.14-54.91-26.05-59.22-55.9-6.1-42.18,27.15-78.34,69.7-75.83,30,1.77,55.9,25.46,60.47,55.16a16.43,16.43,0,0,0,.94,2.74Zm-66-72a64,64,0,1,0,64,64.26A64.14,64.14,0,0,0,1337.21,382.76Z"/><path class="cls-1" d="M204.5,387.23c-9-3.89-14.77-9.76-14.5-19.78.23-8.61,4.26-15,12.24-18.29,9.44-3.88,17.49-1.21,24.29,6.69,13.9-6.7,27.8-13.32,41.58-20.19,1.11-.55,2.06-2.87,1.93-4.26-.78-8.44,2.25-14.92,9.43-19.33,7.61-4.67,15.31-4.44,22.35.94,6.35,4.84,9.47,11.37,7.74,19.62-.27,1.28-.36,2.61-.59,4.34,6.52,2.6,11.33,7,13.44,14.07a19.8,19.8,0,0,1-8.6,22.44c-7.51,4.69-18,4.08-23.95-2-2.4-2.44-4-2.33-6.76-1-12.06,6-24.2,11.77-36.38,17.5-2.53,1.19-3.77,2.47-3.53,5.61.7,8.88-3.32,15.37-11.28,19.23-7.54,3.65-14.76,2.85-21.42-2.33-7-5.47-8.25-12.81-6.68-21C203.93,388.88,204.18,388.27,204.5,387.23Z"/><path class="cls-1" d="M815.68,578.79c-6.49,7.36-13.85,11-23.3,7.68-8.11-2.88-13-8.69-13.61-17.3-.78-10.17,4.25-17,13.87-21-2.08-15.3-4.09-30.57-6.37-45.8-.18-1.22-2.09-2.83-3.45-3.14-8.27-1.87-13.5-6.75-15.47-14.94-2.09-8.68.51-15.93,7.8-21,6.56-4.55,13.73-5.49,21-1.3,1.14.65,2.37,1.15,3.95,1.9,4.48-5.4,10.19-8.6,17.54-8.44a19.81,19.81,0,0,1,18.68,15.11c2.14,8.6-1.67,18.37-9.28,22.17-3.06,1.53-3.46,3.1-3,6.13,2,13.31,3.71,26.65,5.41,40,.35,2.78,1.18,4.36,4.24,5.09,8.66,2.09,13.6,7.91,14.81,16.67,1.14,8.3-1.86,14.92-8.83,19.66-7.38,5-14.74,3.89-22.06-.15C817.07,579.83,816.56,579.41,815.68,578.79Z"/><path class="cls-1" d="M1155.84,746.57c-1.92-12.74.61-19.28,9.47-24.45a18.84,18.84,0,0,1,19.9,0c7,4.06,11,10.46,9.82,18.69-.6,4.23.87,5.8,4.2,7.48,11.75,5.91,23.4,12,35,18.21,2.62,1.39,4.12,1.11,6.4-1,6.21-5.67,13.51-6.58,21.26-3.28,8.13,3.47,12.09,10,12,18.51-.1,7.52-3.32,14.12-10.65,17.24-4.08,1.74-4.19,4.16-3.71,7.75,1.07,8.09-2.48,14.35-9,18.66s-13.78,4.45-20.7.37c-7.41-4.36-11.1-10.87-9.89-19.52.38-2.71-.39-3.87-2.62-5-12.44-6.39-24.78-13-37.28-19.28-1.37-.69-4.06-.62-5.14.29-7.19,6-14.77,7.06-23.08,2.74-7.76-4-11.11-10.53-10.68-19.17.45-9.23,6.06-14.29,13.95-17.59A3.15,3.15,0,0,0,1155.84,746.57Z"/><path class="cls-1" d="M471.91,680.59c1.11-4.31,1.72-8.84,3.45-12.88a70.39,70.39,0,0,0,5.41-26.16c.25-9.76,4.1-17.28,13.41-21.48,5.53-2.5,10.89-2.75,16.24.24,2.61,1.47,5.18,3,7.66,4.67a41.33,41.33,0,0,0,22.86,7.45c9.4.16,16.14,4.82,19.6,13.57,3.9,9.89-.23,19.29-10.11,23.27-7.08,2.86-14.3,5.37-21.46,8-8.51,3.18-15.19,8.67-20.63,15.91a19.82,19.82,0,0,1-23.16,6.83C476.63,696.92,472.33,690.37,471.91,680.59Z"/><path class="cls-1" d="M475.71,576.26a29.17,29.17,0,0,1,.19-3.28c1.83-12.63,12.16-17,22-8.8,10.16,8.42,14.62,19.56,12.79,32.76-1.48,10.65-10.18,14.59-19.42,9.15C482.48,600.91,475.78,588.35,475.71,576.26Z"/><path class="cls-1" d="M477.24,612.06c0,10-6.77,15.27-16.5,12.79-11.69-3-22.7-17-23-29.14-.21-10,6.57-15.4,16.27-13C466,585.57,477.2,599.76,477.24,612.06Z"/><path class="cls-1" d="M518.21,595.79c2.07-5.29,3.37-11.09,6.38-15.77,5.17-8,14.81-8.2,21.26-1.15,8.16,8.91,8.63,25.84,1,35.11-5.8,7-14.59,7.31-20.81.64-4.8-5.16-6.5-11.46-6.54-18.33Z"/><path class="cls-1" d="M439.73,628.58c11-.1,22.84,8.31,26.43,18.8s-2.4,18.6-13.26,18.47c-11.15-.14-23-9.16-26.19-19.85C423.85,636.23,429.49,628.68,439.73,628.58Z"/><path class="cls-1" d="M387.14,798.35l-115.69,66.8V731.59Zm-4,0L273.43,735V861.72Z"/><path class="cls-1" d="M1256.71,143.17l-70.27,40.17-41.68-72.88L1215,70.29C1228.94,94.6,1242.74,118.74,1256.71,143.17Zm-109.25-32,39.71,69.44L1254,142.42,1214.31,73Z"/><path class="cls-1" d="M681.16,345.33c-6.13-1.46-12.28-2.33-17.9-4.52-2.86-1.12-6.2-4.3-6.88-7.13-3.29-13.71,7-35.06,23.74-37.33,3.64-.49,8.28.22,11.27,2.19,10.31,6.74,16,16.76,17.07,29.06.62,6.88-1.67,10.84-8.3,13.14C694.11,342.84,687.68,343.8,681.16,345.33Z"/><path class="cls-1" d="M679.59,272.93c-1.61,4.27-2.62,8.92-5,12.74-3.24,5.24-9.18,5.45-13.73,1.3-7.46-6.83-8.59-22.65-2.17-30.39,3.74-4.51,9.2-4.84,13.58-.83C676.17,259.3,678.66,265.87,679.59,272.93Z"/><path class="cls-1" d="M709.53,271.11c-1.8,4.27-3.19,9.89-6.27,14.34-4.6,6.64-12.14,5.62-16.15-1.43-4.21-7.41-3.33-19.13,1.95-26,5.58-7.31,13.49-6.68,17.33,1.64C707.81,262.72,708.25,266.27,709.53,271.11Z"/><path class="cls-1" d="M657.27,299.42c.05,9.37-7.27,13.77-15.57,9.36-7.62-4-12.77-14.21-11-21.64,1.61-6.65,6.81-9.43,13.24-7.09C651.4,282.76,657.23,291.25,657.27,299.42Z"/><path class="cls-1" d="M733.35,290.6c-.1,7.95-5.46,16.14-12.45,19s-13.34-.85-13.87-8.46c-.59-8.6,3.13-15.16,10.15-19.85,3.5-2.34,7.84-3.59,11.19-.82,2.76,2.28,4.2,6.16,6.22,9.33Z"/><path class="cls-1" d="M1094.82,375c.13,9-6.72,14.85-14.91,13.3a31.17,31.17,0,0,1-11.32-4.81,32.54,32.54,0,0,0-18.71-5.81c-5.36,0-10.19-1.68-13.86-5.8-6.47-7.27-3.67-16.75,5.29-20.51A81,81,0,0,0,1058,341.7c11.42-8.46,22-5.15,26.68,8.41,2.29,6.71,5.52,13.1,8.26,19.66C1093.81,371.88,1094.48,374.08,1094.82,375Z"/><path class="cls-1" d="M1106.54,311.05c-.56,9.35-2.91,15.83-8.88,19.88-2.64,1.8-7.23,2.92-9.91,1.83-2.41-1-4.46-5.27-4.86-8.33-.93-7.17,2.11-13.33,7.36-18.24,3-2.84,7-5.31,10.73-2.78C1103.88,305.39,1105.4,309.39,1106.54,311.05Z"/><path class="cls-1" d="M1057.92,313.67c.39-6.61,2-12.28,6.56-16.71,5.92-5.74,13.09-3.71,15.09,4.37a22.56,22.56,0,0,1-4.5,20.16c-2.5,3.17-6.09,5.87-9.86,4-2.81-1.39-4.62-5-6.53-7.91C1057.92,316.45,1058.1,314.69,1057.92,313.67Z"/><path class="cls-1" d="M1120.94,340.67c-.07,8.38-9.64,17.29-18,16.79-6.11-.36-9.55-5.46-7.91-11.75,1.78-6.81,9.25-13.16,16.24-13.8C1116.94,331.39,1121,335,1120.94,340.67Z"/><path class="cls-1" d="M1054.65,325.92c-.68,2.38-1,4.91-2.09,7.12-2.52,5.32-8.22,6.59-13,3.15-6.1-4.43-8.87-14.69-5.83-21.64,2.87-6.56,9.69-8.32,14.41-2.9,3.3,3.79,5,9,7.42,13.52Z"/><path class="cls-1" d="M466.33,144.84c-1.55,6.22-2.45,12.7-4.81,18.59-3,7.53-10.42,9-16.75,3.8-6-4.9-11.78-10-17.45-15.32-5.14-4.76-4.51-12.48,1-17.59,4.7-4.33,9.32-8.75,13.91-13.19,5.53-5.34,12.56-4.92,17.19,1.26C464.38,129,465.33,136.68,466.33,144.84Z"/><path class="cls-1" d="M405.52,166.66c-6,.06-11-3.1-12.06-7.69-.94-3.94,1.92-8.84,7-11.57,4.7-2.56,9.66-3.44,14.85-1.55,6.85,2.5,9,9.59,3.78,14.53-3.52,3.31-8.48,5.09-12.8,7.56Z"/><path class="cls-1" d="M406.21,143.1c-3-1.2-6.68-2-9.62-3.95-6.39-4.21-5.8-11.64,1.09-15.05,6.09-3,12.48-2.79,17.91,1.23,2.31,1.71,4.54,5.44,4.34,8.07s-3.12,5.49-5.55,7.31C412.43,142.17,409.42,142.24,406.21,143.1Z"/><path class="cls-1" d="M426,124.79c-7.48-.06-14.88-6.93-14.64-13.59.19-5,4.56-8.94,10.11-9,7.57-.06,14.76,6.47,14.74,13.39C436.17,121,431.92,124.84,426,124.79Z"/><path class="cls-1" d="M423.77,185.3c-5.6.07-9.67-3.57-9.61-8.6.07-6.65,7.11-13,14.54-13.17,5.79-.12,9.72,3.2,9.83,8.28C438.66,178.6,431.42,185.22,423.77,185.3Z"/><path class="cls-1" d="M973.3,803.59,857.55,722l1.21-1.72,115.77,81.55Z"/><path class="cls-1" d="M1011.33,803.61,895.49,722l1.22-1.73,115.84,81.6Z"/><path class="cls-1" d="M1059.33,803.61,943.49,722l1.21-1.72q57.93,40.79,115.84,81.59Z"/><path class="cls-1" d="M522.34,446.62l-115.69-81.5c.4-.58.8-1.15,1.21-1.72l115.78,81.54Z"/><path class="cls-1" d="M498.35,446.62,382.68,365.14l1.21-1.72,115.73,81.5Z"/><path class="cls-1" d="M916.75,36.14,799.1,101.76l-.9-1a26.87,26.87,0,0,1,3.71-3.07q38.77-21.66,77.6-43.24C890,48.67,900.41,42.8,910.87,37c1.65-.92,3.37-1.68,5.06-2.52Z"/><path class="cls-1" d="M890.74,22.15,773.09,87.76l-.9-1a27.14,27.14,0,0,1,3.75-3.08q39-21.79,78-43.49C864.28,34.49,874.58,28.7,884.9,23c1.64-.92,3.37-1.67,5.06-2.5Z"/><path class="cls-1" d="M737.56,77.07c1.26-3.56,110.74-65.48,117.59-67l.62,1.1Z"/><path class="cls-1" d="M698.65,67c1.11-3.47,110-65.19,117.46-67l.65,1.14Z"/><path class="cls-1" d="M104,692.71c1.4,1.18,3.83,2.28,4,3.61a6.94,6.94,0,0,1-2.45,5.34C100,705.7,94,709,88.58,713.09a255.06,255.06,0,0,0-63.81,69.22c-.62,1-1,2.46-1.86,2.89-1.88.9-4.35,2.22-6,1.65-2.54-.91-3.35-3.57-1.62-6.21,4.27-6.52,8.3-13.23,12.92-19.49,17.23-23.31,37.43-43.62,61.49-59.94q4.74-3.23,9.6-6.26A48.63,48.63,0,0,1,104,692.71Z"/><path class="cls-1" d="M28.14,796.25c-4.74-.09-6.61-4.25-4.08-8.22,4.62-7.28,9.31-14.55,14.52-21.41,19.18-25.25,41.87-46.73,69-63.35,3-1.84,5.57-2.67,7.72.5,2.29,3.39.06,5.4-2.79,7.15-32.34,19.78-58,46.29-78.46,78a49.77,49.77,0,0,1-2.84,4.68A18.92,18.92,0,0,1,28.14,796.25Z"/><path class="cls-1" d="M77,740.76l6.9-5.69c9.23,6.39,18.92,12.95,28.44,19.74,3.5,2.5,6.54,5.63,9.93,8.3a15.74,15.74,0,0,0,13.62,3.07c7.33-1.65,9.19-5.14,6.62-12.08-5.13-13.84,6-21.33,18-21.19,1.48,0,4.09,2.59,4.09,4,0,1.68-1.89,4-3.58,4.88-3.07,1.62-8.11,1.48-9.48,3.78s.72,6.65,1.49,10.06c2.14,9.43-6.21,18.91-17.52,19.87-7.84.67-14.28-1.76-20.56-6.77C102.9,759.11,90.18,750.39,77,740.76Z"/><path class="cls-1" d="M68.75,749.32c.62-.68,1.71-2.52,3.32-3.42,1.37-.77,3.89-1.27,5-.53,13,8.83,25.88,17.87,38.68,27,2.3,1.64,3.59,4.13,1.27,6.84-2.16,2.53-4.5,2.17-7,.31C96.31,769.45,82.6,759.45,68.75,749.32Z"/><path class="cls-1" d="M69.14,754.53c8,2.56,8.54,3.29,6,11.51-3.47,11.37-7.2,22.68-10.83,34-.36,1.1-.51,2.63-1.3,3.16a43.56,43.56,0,0,1-6,2.94c-.77-2.11-2.52-4.44-2.11-6.29.92-4.15,3.17-8,4.43-12.08C62.73,776.72,65.89,765.61,69.14,754.53Z"/><path class="cls-1" d="M57.94,722.75c-4.35,6.92-5.22,7.06-11.86,4.87-11.11-3.68-22.32-7.09-33.5-10.55-3.25-1-6.23-2.36-5-6.45s4.19-3.45,7.3-2.44c12.27,4,24.56,7.84,36.82,11.83C53.79,720.71,55.81,721.81,57.94,722.75Z"/><path class="cls-1" d="M67.35,753.23q-7.72,23.44-15.47,46.88c-1.08,3.27-3.24,5.47-6.7,3.83s-2.8-4.57-1.57-7.71c3-7.84,6.67-15.62,8.42-23.78,1.91-8.92,8.32-13.83,13.54-20Z"/><path class="cls-1" d="M49.54,731.61c-5.36,7.27-5.34,7.18-12.68,4.83-10.26-3.29-20.62-6.28-30.79-9.78-1.85-.64-4.28-3.11-4.3-4.76-.05-3.16,2.95-4.43,5.81-3.67q13.67,3.64,27.18,7.84C39.65,727.59,44.38,729.66,49.54,731.61Z"/><path class="cls-1" d="M79.83,760.15c1.15,1.26,2.4,2.42,3.42,3.77,6.19,8.23,12.27,16.55,18.52,24.73,2,2.62,3.58,5.21.48,7.75-2.86,2.34-5.28.62-7.2-1.82-5.76-7.29-12-14.26-16.94-22.09-1.8-2.88-.29-7.83-.29-11.83Z"/><path class="cls-1" d="M85.9,732.67c4.35-1.42,8.71-2.8,13-4.28,6.89-2.36,13.79-4.67,20.6-7.23,2.93-1.1,5.81-1.74,7.4,1.39,1.75,3.43-.34,5.71-3.58,6.86-9,3.21-18,6.93-27.24,9.15-3,.71-6.94-2.64-10.46-4.13Z"/><path class="cls-1" d="M61,720.08c0-13.43-.13-26.2.16-39,0-1.59,2.12-4.18,3.54-4.4s4.36,1.75,4.64,3.15a111.14,111.14,0,0,1,1.45,14.84c.16,2.64-.56,5.41,0,7.93C72.5,710.8,68.76,715.89,61,720.08Z"/><path class="cls-1" d="M58.85,720c-7.48-1.2-12.07-4.83-13.54-12.32-1.34-6.81-3.64-13.43-4.86-20.26-.31-1.73,1.88-3.9,2.92-5.88,1.81,1.31,4.67,2.25,5.26,4,3.69,10.62,6.88,21.4,10.19,32.14A8.75,8.75,0,0,1,58.85,720Z"/><path class="cls-1" d="M41.53,740.39c-3.35,5.52-7.41,10.28-15.71,9.09-6.53-.93-13.23-.85-19.85-1-3.52-.06-6.26-1.14-5.94-4.91.35-4.15,3.56-4.34,7.1-4,5.76.51,11.57.66,17.36.78S36,740.39,41.53,740.39Z"/><path class="cls-1" d="M98.4,741.31c7.92-3,15.37-5.7,22.75-8.59,3.11-1.22,6.09-1.8,7.49,1.95s-1.13,5.47-4.2,6.66c-3.25,1.26-6.68,2.21-9.69,3.91C108.05,749.05,103.23,746.19,98.4,741.31Z"/><path class="cls-1" d="M73.72,709.35c-.45-8.31-.92-16.56-1.36-24.81-.16-3.15.79-5.84,4.37-5.91s4.75,2.34,4.8,5.65a57.57,57.57,0,0,0,.67,8.41C83.46,700.26,82,706.4,73.72,709.35Z"/><path class="cls-1" d="M75.39,774c6.06,7.65,11.72,14.52,16.93,21.7.84,1.16.38,4.57-.69,5.45s-4.66,1-5.59,0c-4.63-4.92-9.48-9.93-12.69-15.76C72,782.9,74.49,778.34,75.39,774Z"/><path class="cls-1" d="M44.66,714.07c-7.79-.47-11.82-4.12-12.6-11.56-.36-3.41-2.28-6.7-2.43-10.08-.08-1.91,2-3.91,3.12-5.87,1.78,1.17,4.63,2,5.16,3.59C40.48,698,42.43,705.94,44.66,714.07Z"/><path class="cls-1" d="M31.18,752.32c-4.68,9.18-5.29,9.48-14.82,8.44-3.13-.34-6.32-.22-9.46-.52S1.2,758.51,1.56,755c.33-3.26,2.83-4,5.9-3.77C15.33,751.69,23.22,752,31.18,752.32Z"/><path class="cls-1" d="M123.46,745.06c-.74,4.29-1.48,8.58-2.53,14.7l-7.48-9.23,8.65-6.64Z"/><path class="cls-1" d="M17.7,705l11-9.36c0,4.68,1.17,9-.44,11.54-1,1.52-6.29.27-9.66.27Z"/><path class="cls-1" d="M79.93,799.48,67,801.58c-.32-.34-.63-.68-.94-1l6.14-9,8.37,6.53Z"/><path class="cls-1" d="M96.48,692.9c-3.63,2-5.9,7.74-10,4.51-2.1-1.65-2-6.15-2.83-9.36l1.28-.82Z"/><path class="cls-1" d="M15.26,775.19,8.93,763.83l.84-1.43L19.94,765l-3.12,10.2Z"/><path class="cls-1" d="M118.49,718.91l-8.44,3.35-3-5.23,7.91-4.6C116.18,714.62,117.18,716.48,118.49,718.91Z"/><path class="cls-1" d="M51.6,684.58l6.65-.4c.42,2.75.81,5.27,1.18,7.67C52.72,695.45,52.39,692.57,51.6,684.58Z"/><path class="cls-1" d="M97.32,779.62l4.84-3.87,6.46,5.92L103,786.36Z"/><path class="cls-1" d="M5.48,736.81l1.5-7,8,1.91C15.42,738.24,15.18,738.37,5.48,736.81Z"/><path class="cls-1" d="M44.57,788.23l-3.66,8.26-6.6-3.26L39,785.69Z"/><path class="cls-1" d="M95.76,777.54c-1.78-2.28-3.36-4.17-4.74-6.2a2.09,2.09,0,0,1,.16-2,2.11,2.11,0,0,1,2-.1c1.93,1.24,3.73,2.67,6,4.31Z"/><path class="cls-1" d="M18.72,732.76l8.06,2.92-.32,1.69H17.6Z"/><path class="cls-1" d="M59.61,696.16l-.94,9.07-1.9,0c-.86-2.75-1.71-5.49-2.66-8.55Z"/><path class="cls-1" d="M45.45,785.48l-4.69-2.68,5.75-7.11,1.72,1.1C47.34,779.56,46.45,782.33,45.45,785.48Z"/><path class="cls-1" d="M97.57,724l7-5.25,2.63,4.61-8.81,2.52Z"/></g></g></svg>